<?xml version="1.0" encoding="utf-8"?>
<svg width="243" height="402" viewBox="0 0 243 402" xmlns="http://www.w3.org/2000/svg">
<rect id="frame" x="0" y="0" width="243" height="402" fill="#f7f7f7" stroke="none" stroke-width="0"/>

<!-- Association appartenir -->
<g class="page_0_QdogRVCw diagram_page" visibility="visible">
	<line x1="53" y1="80" x2="180" y2="80" stroke="#5aae61" stroke-width="1"/>
	<text x="102" y="96" fill="#762a83" font-family="Courier New" font-size="12">0,N</text>
	<line x1="180" y1="237" x2="180" y2="80" stroke="#5aae61" stroke-width="1"/>
	<text x="185" y="167" fill="#762a83" font-family="Courier New" font-size="12">1,1</text>
	<g>
		<path d="M216 54 a14 14 90 0 1 14 14 V80 h-100 V68 a14 14 90 0 1 14 -14" fill="#a6dba0" stroke="#a6dba0" stroke-width="0"/>
		<path d="M230 80 v12 a14 14 90 0 1 -14 14 H144 a14 14 90 0 1 -14 -14 V80 H100" fill="#d9f0d3" stroke="#d9f0d3" stroke-width="0"/>
		<rect x="130" y="54" width="100" height="52" fill="none" rx="14" stroke="#5aae61" stroke-width="1.5"/>
		<line x1="130" y1="80" x2="230" y2="80" stroke="#5aae61" stroke-width="1"/>
		<text x="138" y="72.6" fill="#000" font-family="Courier New" font-size="14">appartenir</text>
	</g>
</g>

<!-- Association poster -->
<g class="page_0_QdogRVCw diagram_page" visibility="visible">
	<line x1="53" y1="80" x2="53" y2="237" stroke="#5aae61" stroke-width="1"/>
	<text x="58" y="167" fill="#762a83" font-family="Courier New" font-size="12">0,N</text>
	<line x1="53" y1="349" x2="53" y2="237" stroke="#5aae61" stroke-width="1"/>
	<text x="58" y="297" fill="#762a83" font-family="Courier New" font-size="12">1,1</text>
	<g>
		<path d="M72 211 a14 14 90 0 1 14 14 V237 h-66 V225 a14 14 90 0 1 14 -14" fill="#a6dba0" stroke="#a6dba0" stroke-width="0"/>
		<path d="M86 237 v12 a14 14 90 0 1 -14 14 H34 a14 14 90 0 1 -14 -14 V237 H66" fill="#d9f0d3" stroke="#d9f0d3" stroke-width="0"/>
		<rect x="20" y="211" width="66" height="52" fill="none" rx="14" stroke="#5aae61" stroke-width="1.5"/>
		<line x1="20" y1="237" x2="86" y2="237" stroke="#5aae61" stroke-width="1"/>
		<text x="27" y="229.6" fill="#000" font-family="Courier New" font-size="14">poster</text>
	</g>
</g>

<!-- Association représenter -->
<g class="page_0_QdogRVCw diagram_page" visibility="visible">
	<line x1="180" y1="237" x2="180" y2="349" stroke="#5aae61" stroke-width="1"/>
	<text x="185" y="315" fill="#762a83" font-family="Courier New" font-size="12">0,N</text>
	<line x1="53" y1="349" x2="180" y2="349" stroke="#5aae61" stroke-width="1"/>
	<text x="93" y="365" fill="#762a83" font-family="Courier New" font-size="12">1,1</text>
	<g>
		<path d="M220 323 a14 14 90 0 1 14 14 V349 h-108 V337 a14 14 90 0 1 14 -14" fill="#a6dba0" stroke="#a6dba0" stroke-width="0"/>
		<path d="M234 349 v12 a14 14 90 0 1 -14 14 H140 a14 14 90 0 1 -14 -14 V349 H108" fill="#d9f0d3" stroke="#d9f0d3" stroke-width="0"/>
		<rect x="126" y="323" width="108" height="52" fill="none" rx="14" stroke="#5aae61" stroke-width="1.5"/>
		<line x1="126" y1="349" x2="234" y2="349" stroke="#5aae61" stroke-width="1"/>
		<text x="133" y="341.6" fill="#000" font-family="Courier New" font-size="14">représenter</text>
	</g>
</g>

<!-- Entity admin -->
<g class="page_0_QdogRVCw diagram_page" visibility="visible">
	<g>
		<rect x="9" y="9" width="88" height="26" fill="#c2a5cf" stroke="#c2a5cf" stroke-width="0" opacity="1"/>
		<rect x="9" y="35" width="88" height="116" fill="#e7d4e8" stroke="#e7d4e8" stroke-width="0" opacity="1"/>
		<rect x="9" y="9" width="88" height="142" fill="none" stroke="#9970ab" stroke-width="1.5" opacity="1"/>
		<line x1="9" y1="35" x2="97" y2="35" stroke="#9970ab" stroke-width="1"/>
	</g>
	<text x="32" y="27.6" fill="#000" font-family="Courier New" font-size="14">admin</text>
	<text x="14" y="53.6" fill="#000" font-family="Courier New" font-size="14">id</text>
	<line x1="14" y1="56" x2="32" y2="56" stroke="#000" stroke-width="1"/>
	<text x="14" y="71.6" fill="#000" font-family="Courier New" font-size="14">firstname</text>
	<text x="14" y="89.6" fill="#000" font-family="Courier New" font-size="14">lastname</text>
	<text x="14" y="107.6" fill="#000" font-family="Courier New" font-size="14">email</text>
	<text x="14" y="125.6" fill="#000" font-family="Courier New" font-size="14">pwd</text>
	<text x="14" y="143.6" fill="#000" font-family="Courier New" font-size="14">img</text>
</g>

<!-- Entity projects -->
<g class="page_0_QdogRVCw diagram_page" visibility="visible">
	<g>
		<rect x="128" y="175" width="104" height="26" fill="#c2a5cf" stroke="#c2a5cf" stroke-width="0" opacity="1"/>
		<rect x="128" y="201" width="104" height="98" fill="#e7d4e8" stroke="#e7d4e8" stroke-width="0" opacity="1"/>
		<rect x="128" y="175" width="104" height="124" fill="none" stroke="#9970ab" stroke-width="1.5" opacity="1"/>
		<line x1="128" y1="201" x2="232" y2="201" stroke="#9970ab" stroke-width="1"/>
	</g>
	<text x="146" y="193.6" fill="#000" font-family="Courier New" font-size="14">projects</text>
	<text x="133" y="219.6" fill="#000" font-family="Courier New" font-size="14">id</text>
	<line x1="133" y1="222" x2="151" y2="222" stroke="#000" stroke-width="1"/>
	<text x="133" y="237.6" fill="#000" font-family="Courier New" font-size="14">title</text>
	<text x="133" y="255.6" fill="#000" font-family="Courier New" font-size="14">description</text>
	<text x="133" y="273.6" fill="#000" font-family="Courier New" font-size="14">techno</text>
	<text x="133" y="291.6" fill="#000" font-family="Courier New" font-size="14">status</text>
</g>

<!-- Entity picture -->
<g class="page_0_QdogRVCw diagram_page" visibility="visible">
	<g>
		<rect x="18" y="305" width="70" height="26" fill="#c2a5cf" stroke="#c2a5cf" stroke-width="0" opacity="1"/>
		<rect x="18" y="331" width="70" height="62" fill="#e7d4e8" stroke="#e7d4e8" stroke-width="0" opacity="1"/>
		<rect x="18" y="305" width="70" height="88" fill="none" stroke="#9970ab" stroke-width="1.5" opacity="1"/>
		<line x1="18" y1="331" x2="88" y2="331" stroke="#9970ab" stroke-width="1"/>
	</g>
	<text x="23" y="323.6" fill="#000" font-family="Courier New" font-size="14">picture</text>
	<text x="23" y="349.6" fill="#000" font-family="Courier New" font-size="14">id</text>
	<line x1="23" y1="352" x2="41" y2="352" stroke="#000" stroke-width="1"/>
	<text x="23" y="367.6" fill="#000" font-family="Courier New" font-size="14">img</text>
	<text x="23" y="385.6" fill="#000" font-family="Courier New" font-size="14">legende</text>
</g>
</svg>